{
	"asset":{
		"version":"2.0",
		"generator":"Created using the official Cinema 4D glTF Exporter 1.000x284978"
	},
	"scenes":[{
		"nodes":[0]
	}],
	"nodes":[{
		"name":"Cube",
		"translation":[0.0,
		0.0,
		0.0],
		"rotation":[0.0,
		1.0,
		0.0,
		-6.123234262925839e-17],
		"scale":[1.0,
		1.0,
		1.0],
		"children":[1,
		2,
		3,
		4,
		5,
		6,
		7]
	},
	{
		"name":"Cube-Mat.6",
		"mesh":0
	},
	{
		"name":"Cube-Mat.5",
		"mesh":1
	},
	{
		"name":"Cube-Mat",
		"mesh":2
	},
	{
		"name":"Cube-Mat.4",
		"mesh":3
	},
	{
		"name":"Cube-Mat.3",
		"mesh":4
	},
	{
		"name":"Cube-Mat.2",
		"mesh":5
	},
	{
		"name":"Cube-Mat.1",
		"mesh":6
	}],
	"meshes":[{
		"name":"Cube-Mat.6",
		"primitives":[{
			"attributes":{
				"POSITION":1
			},
			"indices":0,
			"material":0
		}]
	},
	{
		"name":"Cube-Mat.5",
		"primitives":[{
			"attributes":{
				"POSITION":3
			},
			"indices":2,
			"material":1
		}]
	},
	{
		"name":"Cube-Mat",
		"primitives":[{
			"attributes":{
				"POSITION":5
			},
			"indices":4,
			"material":2
		}]
	},
	{
		"name":"Cube-Mat.4",
		"primitives":[{
			"attributes":{
				"POSITION":7
			},
			"indices":6,
			"material":3
		}]
	},
	{
		"name":"Cube-Mat.3",
		"primitives":[{
			"attributes":{
				"POSITION":9
			},
			"indices":8,
			"material":4
		}]
	},
	{
		"name":"Cube-Mat.2",
		"primitives":[{
			"attributes":{
				"POSITION":11
			},
			"indices":10,
			"material":5
		}]
	},
	{
		"name":"Cube-Mat.1",
		"primitives":[{
			"attributes":{
				"POSITION":13
			},
			"indices":12,
			"material":6
		}]
	}],
	"accessors":[{
		"componentType":5123,
		"bufferView":0,
		"type":"SCALAR",
		"count":720,
		"byteOffset":0,
		"min":[0],
		"max":[127]
	},
	{
		"componentType":5126,
		"bufferView":1,
		"type":"VEC3",
		"count":128,
		"byteOffset":0,
		"min":[-1.0,
		-1.0,
		-1.0],
		"max":[1.0,
		1.0,
		1.0]
	},
	{
		"componentType":5123,
		"bufferView":2,
		"type":"SCALAR",
		"count":6,
		"byteOffset":0,
		"min":[0],
		"max":[3]
	},
	{
		"componentType":5126,
		"bufferView":3,
		"type":"VEC3",
		"count":4,
		"byteOffset":0,
		"min":[-0.8644999861717224,
		-1.0,
		-0.8644999861717224],
		"max":[0.8644999861717224,
		-1.0,
		0.8644999861717224]
	},
	{
		"componentType":5123,
		"bufferView":4,
		"type":"SCALAR",
		"count":6,
		"byteOffset":0,
		"min":[0],
		"max":[3]
	},
	{
		"componentType":5126,
		"bufferView":5,
		"type":"VEC3",
		"count":4,
		"byteOffset":0,
		"min":[-0.8644999861717224,
		1.0,
		-0.8644999861717224],
		"max":[0.8644999861717224,
		1.0,
		0.8644999861717224]
	},
	{
		"componentType":5123,
		"bufferView":6,
		"type":"SCALAR",
		"count":6,
		"byteOffset":0,
		"min":[0],
		"max":[3]
	},
	{
		"componentType":5126,
		"bufferView":7,
		"type":"VEC3",
		"count":4,
		"byteOffset":0,
		"min":[1.0,
		-0.8644999861717224,
		-0.8644999861717224],
		"max":[1.0,
		0.8644999861717224,
		0.8644999861717224]
	},
	{
		"componentType":5123,
		"bufferView":8,
		"type":"SCALAR",
		"count":6,
		"byteOffset":0,
		"min":[0],
		"max":[3]
	},
	{
		"componentType":5126,
		"bufferView":9,
		"type":"VEC3",
		"count":4,
		"byteOffset":0,
		"min":[-0.8644999861717224,
		-0.8644999861717224,
		1.0],
		"max":[0.8644999861717224,
		0.8644999861717224,
		1.0]
	},
	{
		"componentType":5123,
		"bufferView":10,
		"type":"SCALAR",
		"count":6,
		"byteOffset":0,
		"min":[0],
		"max":[3]
	},
	{
		"componentType":5126,
		"bufferView":11,
		"type":"VEC3",
		"count":4,
		"byteOffset":0,
		"min":[-0.8644999861717224,
		-0.8644999861717224,
		-1.0],
		"max":[0.8644999861717224,
		0.8644999861717224,
		-1.0]
	},
	{
		"componentType":5123,
		"bufferView":12,
		"type":"SCALAR",
		"count":6,
		"byteOffset":0,
		"min":[0],
		"max":[3]
	},
	{
		"componentType":5126,
		"bufferView":13,
		"type":"VEC3",
		"count":4,
		"byteOffset":0,
		"min":[-1.0,
		-0.8644999861717224,
		-0.8644999861717224],
		"max":[-1.0,
		0.8644999861717224,
		0.8644999861717224]
	}],
	"bufferViews":[{
		"buffer":0,
		"byteOffset":0,
		"byteLength":1440,
		"target":34963
	},
	{
		"buffer":0,
		"byteOffset":1440,
		"byteLength":1536,
		"target":34962
	},
	{
		"buffer":1,
		"byteOffset":0,
		"byteLength":12,
		"target":34963
	},
	{
		"buffer":1,
		"byteOffset":12,
		"byteLength":48,
		"target":34962
	},
	{
		"buffer":2,
		"byteOffset":0,
		"byteLength":12,
		"target":34963
	},
	{
		"buffer":2,
		"byteOffset":12,
		"byteLength":48,
		"target":34962
	},
	{
		"buffer":3,
		"byteOffset":0,
		"byteLength":12,
		"target":34963
	},
	{
		"buffer":3,
		"byteOffset":12,
		"byteLength":48,
		"target":34962
	},
	{
		"buffer":4,
		"byteOffset":0,
		"byteLength":12,
		"target":34963
	},
	{
		"buffer":4,
		"byteOffset":12,
		"byteLength":48,
		"target":34962
	},
	{
		"buffer":5,
		"byteOffset":0,
		"byteLength":12,
		"target":34963
	},
	{
		"buffer":5,
		"byteOffset":12,
		"byteLength":48,
		"target":34962
	},
	{
		"buffer":6,
		"byteOffset":0,
		"byteLength":12,
		"target":34963
	},
	{
		"buffer":6,
		"byteOffset":12,
		"byteLength":48,
		"target":34962
	}],
	"buffers":[{
		"uri":"data:application/octet-stream;base64,",
		"byteLength":2976
	},
	{
		"uri":"data:application/octet-stream;base64,",
		"byteLength":60
	},
	{
		"uri":"data:application/octet-stream;base64,",
		"byteLength":60
	},
	{
		"uri":"data:application/octet-stream;base64,",
		"byteLength":60
	},
	{
		"uri":"data:application/octet-stream;base64,",
		"byteLength":60
	},
	{
		"uri":"data:application/octet-stream;base64,",
		"byteLength":60
	},
	{
		"uri":"data:application/octet-stream;base64,",
		"byteLength":60
	}],
	"materials":[{
		"pbrMetallicRoughness":{
			"baseColorFactor":[0.0,
			0.0,
			0.0,
			1.0],
			"metallicFactor":1.0,
			"roughnessFactor":0.1
		},
		"emissiveFactor":[0.0,
		0.0,
		0.0],
		"alphaMode":"OPAQUE",
		"doubleSided":false,
		"name":"Mat.6"
	},
	{
		"pbrMetallicRoughness":{
			"baseColorFactor":[0.8,
			0.8,
			0.8,
			1.0],
			"metallicFactor":1.0,
			"roughnessFactor":0.1
		},
		"emissiveFactor":[0.0,
		0.0,
		0.0],
		"alphaMode":"OPAQUE",
		"doubleSided":false,
		"name":"Mat.5"
	},
	{
		"pbrMetallicRoughness":{
			"baseColorFactor":[0.8,
			0.7466666666666664,
			0.0,
			1.0],
			"metallicFactor":1.0,
			"roughnessFactor":0.1
		},
		"emissiveFactor":[0.0,
		0.0,
		0.0],
		"alphaMode":"OPAQUE",
		"doubleSided":false,
		"name":"Mat"
	},
	{
		"pbrMetallicRoughness":{
			"baseColorFactor":[0.8,
			0.36,
			0.0,
			1.0],
			"metallicFactor":1.0,
			"roughnessFactor":0.1
		},
		"emissiveFactor":[0.0,
		0.0,
		0.0],
		"alphaMode":"OPAQUE",
		"doubleSided":false,
		"name":"Mat.4"
	},
	{
		"pbrMetallicRoughness":{
			"baseColorFactor":[0.0,
			0.8,
			0.0,
			1.0],
			"metallicFactor":1.0,
			"roughnessFactor":0.1
		},
		"emissiveFactor":[0.0,
		0.0,
		0.0],
		"alphaMode":"OPAQUE",
		"doubleSided":false,
		"name":"Mat.3"
	},
	{
		"pbrMetallicRoughness":{
			"baseColorFactor":[0.0,
			0.07999999999999973,
			0.8,
			1.0],
			"metallicFactor":1.0,
			"roughnessFactor":0.1
		},
		"emissiveFactor":[0.0,
		0.0,
		0.0],
		"alphaMode":"OPAQUE",
		"doubleSided":false,
		"name":"Mat.2"
	},
	{
		"pbrMetallicRoughness":{
			"baseColorFactor":[0.8,
			0.0,
			0.0,
			1.0],
			"metallicFactor":1.0,
			"roughnessFactor":0.1
		},
		"emissiveFactor":[0.0,
		0.0,
		0.0],
		"alphaMode":"OPAQUE",
		"doubleSided":false,
		"name":"Mat.1"
	}]
}