{
	"asset":{
		"version":"2.0",
		"generator":"Created using the official Cinema 4D glTF Exporter 1.000x284978"
	},
	"scenes":[{
		"nodes":[0]
	}],
	"nodes":[{
		"name":"Extrude",
		"mesh":0
	}],
	"meshes":[{
		"name":"Extrude",
		"primitives":[{
			"attributes":{
				"POSITION":1
			},
			"indices":0
		}]
	}],
	"accessors":[{
		"bufferView":0,
		"type":"SCALAR",
		"componentType":5123,
		"count":432,
		"byteOffset":0,
		"max":[143],
		"min":[0]
	},
	{
		"bufferView":1,
		"type":"VEC3",
		"componentType":5126,
		"count":144,
		"byteOffset":0,
		"max":[200.0,
		200.0,
		34.952816009521487],
		"min":[-200.0,
		-200.0,
		-33.047183990478519]
	}],
	"bufferViews":[{
		"buffer":0,
		"target":34963,
		"byteOffset":0,
		"byteLength":864
	},
	{
		"buffer":0,
		"target":34962,
		"byteOffset":864,
		"byteLength":1728
	}],
	"buffers":[{
		"uri":"data:application/octet-stream;base64,",
		"byteLength":2592
	}]
}