{
	"asset":{
		"version":"2.0",
		"generator":"Created using the official Cinema 4D glTF Exporter 1.000x284978"
	},
	"scenes":[{
		"nodes":[0]
	}],
	"buffers":[{
		"uri":"data:application/octet-stream;base64,",
		"byteLength":21408
	},
	{
		"uri":"data:application/octet-stream;base64,",
		"byteLength":540
	},
	{
		"uri":"data:application/octet-stream;base64,",
		"byteLength":540
	},
	{
		"uri":"data:application/octet-stream;base64,",
		"byteLength":540
	},
	{
		"uri":"data:application/octet-stream;base64,",
		"byteLength":540
	},
	{
		"uri":"data:application/octet-stream;base64,",
		"byteLength":540
	},
	{
		"uri":"data:application/octet-stream;base64,",
		"byteLength":540
	}],
	"nodes":[{
		"name":"Cube",
		"children":[1,
		2,
		3,
		4,
		5,
		6,
		7]
	},
	{
		"name":"Cube-Mat",
		"mesh":0
	},
	{
		"name":"Cube-Mat",
		"mesh":1
	},
	{
		"name":"Cube-Mat",
		"mesh":2
	},
	{
		"name":"Cube-Mat",
		"mesh":3
	},
	{
		"name":"Cube-Mat",
		"mesh":4
	},
	{
		"name":"Cube-Mat",
		"mesh":5
	},
	{
		"name":"Cube-Mat",
		"mesh":6
	}],
	"meshes":[{
		"name":"Cube-Mat",
		"primitives":[{
			"attributes":{
				"POSITION":1
			},
			"indices":0,
			"material":0
		}]
	},
	{
		"name":"Cube-Mat",
		"primitives":[{
			"attributes":{
				"POSITION":3
			},
			"indices":2,
			"material":1
		}]
	},
	{
		"name":"Cube-Mat",
		"primitives":[{
			"attributes":{
				"POSITION":5
			},
			"indices":4,
			"material":2
		}]
	},
	{
		"name":"Cube-Mat",
		"primitives":[{
			"attributes":{
				"POSITION":7
			},
			"indices":6,
			"material":3
		}]
	},
	{
		"name":"Cube-Mat",
		"primitives":[{
			"attributes":{
				"POSITION":9
			},
			"indices":8,
			"material":4
		}]
	},
	{
		"name":"Cube-Mat",
		"primitives":[{
			"attributes":{
				"POSITION":11
			},
			"indices":10,
			"material":5
		}]
	},
	{
		"name":"Cube-Mat",
		"primitives":[{
			"attributes":{
				"POSITION":13
			},
			"indices":12,
			"material":6
		}]
	}],
	"bufferViews":[{
		"buffer":0,
		"byteLength":10368,
		"byteOffset":0,
		"target":34963
	},
	{
		"buffer":0,
		"byteLength":11040,
		"byteOffset":10368,
		"target":34962
	},
	{
		"buffer":1,
		"byteLength":108,
		"byteOffset":0,
		"target":34963
	},
	{
		"buffer":1,
		"byteLength":432,
		"byteOffset":108,
		"target":34962
	},
	{
		"buffer":2,
		"byteLength":108,
		"byteOffset":0,
		"target":34963
	},
	{
		"buffer":2,
		"byteLength":432,
		"byteOffset":108,
		"target":34962
	},
	{
		"buffer":3,
		"byteLength":108,
		"byteOffset":0,
		"target":34963
	},
	{
		"buffer":3,
		"byteLength":432,
		"byteOffset":108,
		"target":34962
	},
	{
		"buffer":4,
		"byteLength":108,
		"byteOffset":0,
		"target":34963
	},
	{
		"buffer":4,
		"byteLength":432,
		"byteOffset":108,
		"target":34962
	},
	{
		"buffer":5,
		"byteLength":108,
		"byteOffset":0,
		"target":34963
	},
	{
		"buffer":5,
		"byteLength":432,
		"byteOffset":108,
		"target":34962
	},
	{
		"buffer":6,
		"byteLength":108,
		"byteOffset":0,
		"target":34963
	},
	{
		"buffer":6,
		"byteLength":432,
		"byteOffset":108,
		"target":34962
	}],
	"accessors":[{
		"bufferView":0,
		"type":"SCALAR",
		"componentType":5123,
		"min":[0],
		"count":5184,
		"byteOffset":0,
		"max":[919]
	},
	{
		"bufferView":1,
		"type":"VEC3",
		"componentType":5126,
		"min":[-1.0299999713897706,
		-1.0299999713897706,
		-1.0299999713897706],
		"count":920,
		"byteOffset":0,
		"max":[1.0299999713897706,
		1.0299999713897706,
		1.0299999713897706]
	},
	{
		"bufferView":2,
		"type":"SCALAR",
		"componentType":5123,
		"min":[0],
		"count":54,
		"byteOffset":0,
		"max":[35]
	},
	{
		"bufferView":3,
		"type":"VEC3",
		"componentType":5126,
		"min":[-0.9599999785423279,
		-1.0299999713897706,
		-0.9599999785423279],
		"count":36,
		"byteOffset":0,
		"max":[0.9599999785423279,
		-1.0199999809265137,
		0.9599999785423279]
	},
	{
		"bufferView":4,
		"type":"SCALAR",
		"componentType":5123,
		"min":[0],
		"count":54,
		"byteOffset":0,
		"max":[35]
	},
	{
		"bufferView":5,
		"type":"VEC3",
		"componentType":5126,
		"min":[-0.9599999785423279,
		-0.9599999785423279,
		-1.0299999713897706],
		"count":36,
		"byteOffset":0,
		"max":[0.9599999785423279,
		0.9599999785423279,
		-1.0199999809265137]
	},
	{
		"bufferView":6,
		"type":"SCALAR",
		"componentType":5123,
		"min":[0],
		"count":54,
		"byteOffset":0,
		"max":[35]
	},
	{
		"bufferView":7,
		"type":"VEC3",
		"componentType":5126,
		"min":[-0.9599999785423279,
		-0.9599999785423279,
		1.0199999809265137],
		"count":36,
		"byteOffset":0,
		"max":[0.9599999785423279,
		0.9599999785423279,
		1.0299999713897706]
	},
	{
		"bufferView":8,
		"type":"SCALAR",
		"componentType":5123,
		"min":[0],
		"count":54,
		"byteOffset":0,
		"max":[35]
	},
	{
		"bufferView":9,
		"type":"VEC3",
		"componentType":5126,
		"min":[-0.9599999785423279,
		1.0199999809265137,
		-0.9599999785423279],
		"count":36,
		"byteOffset":0,
		"max":[0.9599999785423279,
		1.0299999713897706,
		0.9599999785423279]
	},
	{
		"bufferView":10,
		"type":"SCALAR",
		"componentType":5123,
		"min":[0],
		"count":54,
		"byteOffset":0,
		"max":[35]
	},
	{
		"bufferView":11,
		"type":"VEC3",
		"componentType":5126,
		"min":[-1.0299999713897706,
		-0.9599999785423279,
		-0.9599999785423279],
		"count":36,
		"byteOffset":0,
		"max":[-1.0199999809265137,
		0.9599999785423279,
		0.9599999785423279]
	},
	{
		"bufferView":12,
		"type":"SCALAR",
		"componentType":5123,
		"min":[0],
		"count":54,
		"byteOffset":0,
		"max":[35]
	},
	{
		"bufferView":13,
		"type":"VEC3",
		"componentType":5126,
		"min":[1.0199999809265137,
		-0.9599999785423279,
		-0.9599999785423279],
		"count":36,
		"byteOffset":0,
		"max":[1.0299999713897706,
		0.9599999785423279,
		0.9599999785423279]
	}],
	"materials":[{
		"pbrMetallicRoughness":{
			"baseColorFactor":[0.0,
			0.0,
			0.0,
			1.0],
			"metallicFactor":1.0,
			"roughnessFactor":0.1
		},
		"emissiveFactor":[0.0,
		0.0,
		0.0],
		"alphaMode":"OPAQUE",
		"doubleSided":false,
		"name":"Mat"
	},
	{
		"pbrMetallicRoughness":{
			"baseColorFactor":[0.96,
			0.65376,
			0.1248,
			1.0],
			"metallicFactor":1.0,
			"roughnessFactor":0.1
		},
		"emissiveFactor":[0.0,
		0.0,
		0.0],
		"alphaMode":"OPAQUE",
		"doubleSided":false,
		"name":"Mat"
	},
	{
		"pbrMetallicRoughness":{
			"baseColorFactor":[0.3909999999999999,
			0.13,
			1.0,
			1.0],
			"metallicFactor":1.0,
			"roughnessFactor":0.1
		},
		"emissiveFactor":[0.0,
		0.0,
		0.0],
		"alphaMode":"OPAQUE",
		"doubleSided":false,
		"name":"Mat"
	},
	{
		"pbrMetallicRoughness":{
			"baseColorFactor":[0.13,
			1.0,
			0.3330000000000004,
			1.0],
			"metallicFactor":1.0,
			"roughnessFactor":0.1
		},
		"emissiveFactor":[0.0,
		0.0,
		0.0],
		"alphaMode":"OPAQUE",
		"doubleSided":false,
		"name":"Mat"
	},
	{
		"pbrMetallicRoughness":{
			"baseColorFactor":[0.96,
			0.1248,
			0.1248,
			1.0],
			"metallicFactor":1.0,
			"roughnessFactor":0.1
		},
		"emissiveFactor":[0.0,
		0.0,
		0.0],
		"alphaMode":"OPAQUE",
		"doubleSided":false,
		"name":"Mat"
	},
	{
		"pbrMetallicRoughness":{
			"baseColorFactor":[1.0,
			0.9855,
			0.13,
			1.0],
			"metallicFactor":1.0,
			"roughnessFactor":0.1
		},
		"emissiveFactor":[0.0,
		0.0,
		0.0],
		"alphaMode":"OPAQUE",
		"doubleSided":false,
		"name":"Mat"
	},
	{
		"pbrMetallicRoughness":{
			"baseColorFactor":[1.0,
			1.0,
			1.0,
			1.0],
			"metallicFactor":1.0,
			"roughnessFactor":0.1
		},
		"emissiveFactor":[0.0,
		0.0,
		0.0],
		"alphaMode":"OPAQUE",
		"doubleSided":false,
		"name":"Mat"
	}]
}